# xmcd CD database file
#
# Track frame offsets:
#	150
#	14356
#	27796
#	39541
#	51737
#	64100
#	77792
#	91875
#	106463
#	120023
#	135145
#	150156
#	163286
#	178228
#	190265
#
# Disc length: 2729 seconds
#
# Revision: 0
# Processed by: cddbd v1.5PL3 Copyright (c) Steve Scherf et al.
# Submitted via: CDex 1.51
#
DISCID=b90aa70f
DTITLE=Louis Armstrong - The Complete Rca Victor Recordings Vol 4
DYEAR=1900
DGENRE=Jazz
TTITLE0=Where The Blues Born In New Orleans
TTITLE1=Mahogany Hall Stomp
TTITLE2=I Wonder, I Wonder, I Wonder
TTITLE3=It Takes Time
TTITLE4=You Don't Learn That In School
TTITLE5=Jack-Armstrong Blues
TTITLE6=Rockin' Chair
TTITLE7=Some Day Yoy'll Be Sorry
TTITLE8=Fifty-Fifty Blues
TTITLE9=A Song Was Born
TTITLE10=Please Stop Playin' Those Blues, Boy
TTITLE11=Before Long
TTITLE12=Lovely Weather We're Having
TTITLE13=Rain, Rain
TTITLE14=Never Saw A Better Day
EXTD=
EXTT0=
EXTT1=
EXTT2=
EXTT3=
EXTT4=
EXTT5=
EXTT6=
EXTT7=
EXTT8=
EXTT9=
EXTT10=
EXTT11=
EXTT12=
EXTT13=
EXTT14=
PLAYORDER=
